<?xml version="1.0" encoding="UTF-8"?>
<svg version="1.1" xmlns="http://www.w3.org/2000/svg" width="1024" height="768">
<path d="M0 0 C337.92 0 675.84 0 1024 0 C1024 253.44 1024 506.88 1024 768 C686.08 768 348.16 768 0 768 C0 514.56 0 261.12 0 0 Z " fill="#FEFEFE" transform="translate(0,0)"/>
<path d="M0 0 C1.00546875 0.02707031 2.0109375 0.05414063 3.046875 0.08203125 C3.77390625 0.11683594 4.5009375 0.15164063 5.25 0.1875 C6.21070434 3.06961302 6.35581883 4.88600044 6.3125 7.875 C6.30347656 8.68324219 6.29445313 9.49148438 6.28515625 10.32421875 C6.27355469 10.93910156 6.26195312 11.55398438 6.25 12.1875 C-3.50359123 16.19343925 -12.57559695 16.34591377 -23.03125 16.35546875 C-24.31696899 16.35879715 -25.60268799 16.36212555 -26.92736816 16.36555481 C-29.65064327 16.37152281 -32.3738868 16.37339772 -35.09716797 16.37280273 C-37.83714527 16.37272235 -40.57695225 16.37952457 -43.31689453 16.39331055 C-56.99342695 16.46090395 -70.63733693 16.41416499 -84.28125 15.36328125 C-85.24591187 15.29392868 -86.21057373 15.22457611 -87.20446777 15.15312195 C-92.6256421 14.67119179 -96.92695567 13.7605731 -101.75 11.1875 C-103.2283226 8.23085481 -102.81032783 5.44520263 -102.75 2.1875 C-96.89490099 -0.74004951 -88.09973312 1.39472752 -81.78125 2.16796875 C-70.42165986 3.4177648 -59.10229873 3.52524607 -47.68359375 3.50317383 C-44.22625157 3.49997805 -40.76973946 3.52370851 -37.3125 3.54882812 C-35.07291772 3.55109876 -32.83333319 3.55180571 -30.59375 3.55078125 C-29.58098999 3.559991 -28.56822998 3.56920074 -27.52478027 3.57868958 C-21.13338705 3.53788404 -15.48290052 2.59642553 -9.32940674 0.85958862 C-6.16666477 0.03550653 -3.25941341 -0.11640762 0 0 Z " fill="#F9B331" transform="translate(354.75,382.8125)"/>
<path d="M0 0 C2.0625 2.3125 2.0625 2.3125 2.5 4.9375 C2.0625 7.3125 2.0625 7.3125 0.0625 9.3125 C-15.24726765 12.77176304 -31.64036667 11.58113305 -47.24816895 11.50811768 C-50.18060024 11.49724471 -53.11298506 11.49765104 -56.04543304 11.49825573 C-58.89893886 11.49798249 -61.75241528 11.49247876 -64.60591125 11.48525429 C-66.60262703 11.48059391 -68.59934886 11.4788056 -70.59606934 11.47709656 C-77.12584349 11.44311079 -83.46518435 11.19074803 -89.9375 10.3125 C-89.9375 9.6525 -89.9375 8.9925 -89.9375 8.3125 C-91.5875 7.9825 -93.2375 7.6525 -94.9375 7.3125 C-94.59053263 4.74494148 -94.28384939 2.80535093 -92.77960205 0.66482544 C-90.10041689 -1.30202013 -88.07610256 -1.04070569 -84.77636719 -1.01220703 C-83.50363953 -1.00875275 -82.23091187 -1.00529846 -80.9196167 -1.0017395 C-79.52453423 -0.98307228 -78.1294537 -0.96425943 -76.734375 -0.9453125 C-75.29486838 -0.93716574 -73.85535264 -0.93050634 -72.41583252 -0.92526245 C-68.61396244 -0.908121 -64.81244691 -0.87390841 -61.01074219 -0.83520508 C-54.96989859 -0.77616783 -48.9288917 -0.74162978 -42.88785553 -0.70943832 C-40.79938724 -0.69573895 -38.71112626 -0.67408548 -36.6227417 -0.65115356 C-28.81060813 -0.59298308 -21.13229842 -0.84959317 -13.34698486 -1.46847534 C-3.64154432 -2.09195099 -3.64154432 -2.09195099 0 0 Z " fill="#F7B43B" transform="translate(352.9375,364.6875)"/>
<path d="M0 0 C28.38 0 56.76 0 86 0 C85 7 85 7 83 9 C74.07283049 11.42907186 64.74671025 11.34126013 55.56640625 11.37109375 C54.11579815 11.38008549 52.66519086 11.38920768 51.21458435 11.39845276 C48.200081 11.41479938 45.18568698 11.42261864 42.17114258 11.42553711 C38.31529055 11.43096313 34.46046512 11.46887451 30.60490513 11.51428127 C27.62027705 11.54402798 24.63589984 11.55125983 21.6511364 11.55226326 C20.22897481 11.55645609 18.80681183 11.56885294 17.38479805 11.58978081 C15.40197571 11.61668947 13.41877366 11.60876429 11.43579102 11.59936523 C10.31060562 11.60443588 9.18542023 11.60950653 8.02613831 11.61473083 C3.94470667 10.78562733 2.45571199 9.32171938 0 6 C0 4.02 0 2.04 0 0 Z " fill="#F4B742" transform="translate(263,408)"/>
<path d="M0 0 C1.65234375 1.578125 1.65234375 1.578125 3.96484375 4.765625 C3.96484375 5.755625 3.96484375 6.745625 3.96484375 7.765625 C0.679649 8.86068992 -1.7717904 8.86523108 -5.22265625 8.828125 C-6.85267578 8.81458984 -6.85267578 8.81458984 -8.515625 8.80078125 C-9.34707031 8.78917969 -10.17851562 8.77757812 -11.03515625 8.765625 C-11.03515625 9.425625 -11.03515625 10.085625 -11.03515625 10.765625 C-16.40216786 10.81592864 -21.76903544 10.85176063 -27.13623047 10.87548828 C-28.95331214 10.88540371 -30.7703785 10.89894012 -32.58740234 10.91650391 C-44.89188036 11.03226269 -56.83810664 10.41911468 -69.03515625 8.765625 C-69.4012615 4.25032696 -69.4012615 4.25032696 -67.79496765 2.12368774 C-65.60306707 0.43217778 -64.43882989 0.37803484 -61.69067383 0.34912109 C-60.81578812 0.33255463 -59.9409024 0.31598816 -59.039505 0.29891968 C-58.09576523 0.29566681 -57.15202545 0.29241394 -56.1796875 0.2890625 C-55.20408371 0.27348297 -54.22847992 0.25790344 -53.22331238 0.24185181 C-50.0981025 0.1942787 -46.97311403 0.16658435 -43.84765625 0.140625 C-40.7402124 0.10399028 -37.63288971 0.06315427 -34.52555847 0.01797485 C-32.59229085 -0.00897386 -30.65893648 -0.03044269 -28.72554016 -0.04556274 C-0.6092442 -0.36952239 -0.6092442 -0.36952239 0 0 Z " fill="#F6B538" transform="translate(339.03515625,345.234375)"/>
<path d="M0 0 C0 0.33 0 0.66 0 1 C-0.56589844 1.13277344 -1.13179688 1.26554687 -1.71484375 1.40234375 C-2.81505859 1.66724609 -2.81505859 1.66724609 -3.9375 1.9375 C-5.03384766 2.19853516 -5.03384766 2.19853516 -6.15234375 2.46484375 C-7.99969898 2.83887569 -7.99969898 2.83887569 -9 4 C-22.10039844 5.28934663 -35.36947148 5.12718733 -48.52175903 5.17623901 C-50.36021504 5.18365741 -52.19866137 5.19425944 -54.03707886 5.20828247 C-65.53803067 5.28767696 -76.62273334 4.76814966 -88 3 C-88.33 4.65 -88.66 6.3 -89 8 C-86.31297034 8.31702641 -83.62546876 8.62861361 -80.9375 8.9375 C-79.83825195 9.06801758 -79.83825195 9.06801758 -78.71679688 9.20117188 C-62.81556127 11.01270504 -47.04480558 11.12520355 -31.0625 11.0625 C-28.81836038 11.05747302 -26.57421966 11.05291224 -24.33007812 11.04882812 C-18.88669446 11.03792191 -13.44335249 11.02127949 -8 11 C-8 10.34 -8 9.68 -8 9 C-4.78548731 7.39274365 -1.56387464 7.94251815 2 8 C2 6.02 2 4.04 2 2 C2.99 2.66 3.98 3.32 5 4 C5.3125 6.5 5.3125 6.5 5 9 C-2.02347057 16.02347057 -22.13862794 13.21971079 -31.43109131 13.23358536 C-35.72435206 13.23326645 -40.01746277 13.21570187 -44.31066895 13.19561768 C-47.24310024 13.18474471 -50.17548506 13.18515104 -53.10793304 13.18575573 C-55.96143886 13.18548249 -58.81491528 13.17997876 -61.66841125 13.17275429 C-63.66512703 13.16809391 -65.66184886 13.1663056 -67.65856934 13.16459656 C-74.18834349 13.13061079 -80.52768435 12.87824803 -87 12 C-87 11.34 -87 10.68 -87 10 C-88.65 9.67 -90.3 9.34 -92 9 C-91.65303263 6.43244148 -91.34634939 4.49285093 -89.84210205 2.35232544 C-87.16291689 0.38547987 -85.13860256 0.64679431 -81.83886719 0.67529297 C-80.56613953 0.67874725 -79.29341187 0.68220154 -77.9821167 0.6857605 C-76.58703423 0.70442772 -75.1919537 0.72324057 -73.796875 0.7421875 C-72.35736838 0.75033426 -70.91785264 0.75699366 -69.47833252 0.76223755 C-65.67646244 0.779379 -61.87494691 0.81359159 -58.07324219 0.85229492 C-52.03239859 0.91133217 -45.9913917 0.94587022 -39.95035553 0.97806168 C-37.86188724 0.99176105 -35.77362626 1.01341452 -33.6852417 1.03634644 C-25.87310813 1.09451692 -18.19479842 0.83790683 -10.40948486 0.21902466 C-6.92990727 -0.00450274 -3.48573234 -0.03556728 0 0 Z " fill="#EECE98" transform="translate(350,363)"/>
<path d="M0 0 C1.22460938 0.09796875 2.44921875 0.1959375 3.7109375 0.296875 C4.89945312 0.38453125 6.08796875 0.4721875 7.3125 0.5625 C10.04274254 0.80781451 12.73523917 1.14099923 15.44921875 1.53442383 C25.72738977 2.99132079 35.78807933 3.32635537 46.16308594 3.25268555 C48.8744422 3.23411122 51.58546091 3.23217883 54.296875 3.23242188 C56.03385712 3.22751599 57.77083695 3.22169178 59.5078125 3.21484375 C60.31192566 3.21373093 61.11603882 3.2126181 61.94451904 3.21147156 C65.5016869 3.18116756 68.65794905 2.94750307 72.0859375 2.046875 C73.50128528 1.98230621 74.91931439 1.96076461 76.3359375 1.984375 C78.1921875 2.0153125 78.1921875 2.0153125 80.0859375 2.046875 C79.4259375 2.376875 78.7659375 2.706875 78.0859375 3.046875 C78.0859375 3.706875 78.0859375 4.366875 78.0859375 5.046875 C68.13839492 11.67857005 51.2234991 9.27821271 39.7109375 9.171875 C37.79948389 9.16181813 35.88802512 9.1526971 33.9765625 9.14453125 C29.34622401 9.1227483 24.71613956 9.08836999 20.0859375 9.046875 C20.0859375 8.386875 20.0859375 7.726875 20.0859375 7.046875 C18.77238281 7.05847656 17.45882813 7.07007813 16.10546875 7.08203125 C14.36979309 7.09141328 12.63411589 7.10051304 10.8984375 7.109375 C9.60196289 7.12194336 9.60196289 7.12194336 8.27929688 7.13476562 C4.08306981 7.15084312 0.17656864 7.12246538 -3.9140625 6.046875 C-4.5390625 4.171875 -4.5390625 4.171875 -4.9140625 2.046875 C-2.9140625 0.046875 -2.9140625 0.046875 0 0 Z " fill="#FAB430" transform="translate(259.9140625,386.953125)"/>
<path d="M0 0 C-0.33 1.32 -0.66 2.64 -1 4 C-1.66 4 -2.32 4 -3 4 C-3 4.66 -3 5.32 -3 6 C-4.24735567 6.6509259 -5.49801832 7.29551669 -6.75 7.9375 C-7.44609375 8.29714844 -8.1421875 8.65679687 -8.859375 9.02734375 C-16.68351575 12.5824734 -27.96909653 12.22883011 -36.23046875 10.2109375 C-38.59642108 9.27314702 -40.78122442 8.24215428 -43 7 C-44.03125 6.484375 -45.0625 5.96875 -46.125 5.4375 C-46.74375 4.963125 -47.3625 4.48875 -48 4 C-48 3.01 -48 2.02 -48 1 C-41.9677095 0.85683638 -35.93540152 0.7144415 -29.90307617 0.57275391 C-27.85163891 0.52446192 -25.80020655 0.47596116 -23.7487793 0.42724609 C-20.79737599 0.35719583 -17.84595576 0.28790036 -14.89453125 0.21875 C-13.97976517 0.19687622 -13.06499908 0.17500244 -12.12251282 0.15246582 C-8.0807864 0.05843093 -4.04317745 -0.02937822 0 0 Z " fill="#EFC786" transform="translate(331,428)"/>
<path d="M0 0 C1.65234375 1.578125 1.65234375 1.578125 3.96484375 4.765625 C3.96484375 5.755625 3.96484375 6.745625 3.96484375 7.765625 C0.679649 8.86068992 -1.7717904 8.86523108 -5.22265625 8.828125 C-6.85267578 8.81458984 -6.85267578 8.81458984 -8.515625 8.80078125 C-9.34707031 8.78917969 -10.17851562 8.77757812 -11.03515625 8.765625 C-11.03515625 9.425625 -11.03515625 10.085625 -11.03515625 10.765625 C-16.40216786 10.81592864 -21.76903544 10.85176063 -27.13623047 10.87548828 C-28.95331214 10.88540371 -30.7703785 10.89894012 -32.58740234 10.91650391 C-44.89188036 11.03226269 -56.83810664 10.41911468 -69.03515625 8.765625 C-69.4012615 4.25032696 -69.4012615 4.25032696 -67.79496765 2.12368774 C-65.60306707 0.43217778 -64.43882989 0.37803484 -61.69067383 0.34912109 C-60.81578812 0.33255463 -59.9409024 0.31598816 -59.039505 0.29891968 C-58.09576523 0.29566681 -57.15202545 0.29241394 -56.1796875 0.2890625 C-55.20408371 0.27348297 -54.22847992 0.25790344 -53.22331238 0.24185181 C-50.0981025 0.1942787 -46.97311403 0.16658435 -43.84765625 0.140625 C-40.7402124 0.10399028 -37.63288971 0.06315427 -34.52555847 0.01797485 C-32.59229085 -0.00897386 -30.65893648 -0.03044269 -28.72554016 -0.04556274 C-0.6092442 -0.36952239 -0.6092442 -0.36952239 0 0 Z M-13.60546875 1.25976562 C-18.85726396 1.79177434 -24.07208963 1.96573836 -29.34765625 2.046875 C-31.26562537 2.08461664 -33.18359411 2.1223776 -35.1015625 2.16015625 C-38.08835737 2.2140481 -41.07517564 2.26631577 -44.06201172 2.31787109 C-46.96981557 2.36944971 -49.87746824 2.42668578 -52.78515625 2.484375 C-54.13347534 2.50473816 -54.13347534 2.50473816 -55.5090332 2.5255127 C-56.75172974 2.55058899 -56.75172974 2.55058899 -58.01953125 2.57617188 C-58.74881836 2.58869995 -59.47810547 2.60122803 -60.22949219 2.61413574 C-62.1364114 2.66172292 -62.1364114 2.66172292 -64.03515625 3.765625 C-64.03515625 4.755625 -64.03515625 5.745625 -64.03515625 6.765625 C-60.82872094 8.36884266 -57.31490751 8.15632138 -53.78515625 8.328125 C-52.52336548 8.3907251 -52.52336548 8.3907251 -51.23608398 8.45458984 C-34.47122961 9.20913918 -17.77803024 8.78254576 -1.03515625 7.765625 C-0.70515625 6.115625 -0.37515625 4.465625 -0.03515625 2.765625 C-4.51024471 -0.21776731 -8.4546292 0.6891027 -13.60546875 1.25976562 Z " fill="#ECCE9C" transform="translate(339.03515625,345.234375)"/>
<path d="M0 0 C5.28 0 10.56 0 16 0 C16 0.66 16 1.32 16 2 C16.60328125 2.03738281 17.2065625 2.07476562 17.828125 2.11328125 C26.16866261 2.79935773 26.16866261 2.79935773 29 6 C29 6.99 29 7.98 29 9 C15.47 9 1.94 9 -12 9 C-11 5 -11 5 -9.2578125 3.953125 C-8.55398438 3.72109375 -7.85015625 3.4890625 -7.125 3.25 C-6.42632812 3.00765625 -5.72765625 2.7653125 -5.0078125 2.515625 C-3 2 -3 2 0 2 C0 1.34 0 0.68 0 0 Z " fill="#F2C46C" transform="translate(299,328)"/>
<path d="M0 0 C12.74973738 1.40221796 25.51406976 1.4936345 38.328125 1.6640625 C40.74219975 1.70236054 43.15626257 1.7414185 45.5703125 1.78125 C51.40614193 1.87592074 57.24204679 1.96131654 63.078125 2.0390625 C63.078125 2.3690625 63.078125 2.6990625 63.078125 3.0390625 C55.71900713 4.59556749 48.72981208 5.33749416 41.21484375 5.3046875 C40.22039749 5.30660095 39.22595123 5.3085144 38.20137024 5.31048584 C36.11316675 5.31183673 34.02495455 5.30821762 31.93676758 5.29980469 C28.78381962 5.28912413 25.63144581 5.29972018 22.47851562 5.3125 C12.84065184 5.31820518 3.49646582 5.20302686 -6.00854492 3.46777344 C-9.34325069 2.97705498 -12.55604437 2.97285461 -15.921875 3.0390625 C-17.13269351 6.14447176 -17.13269351 6.14447176 -16.921875 10.0390625 C-17.911875 9.7090625 -18.901875 9.3790625 -19.921875 9.0390625 C-21.4001976 6.08241731 -20.98220283 3.29676513 -20.921875 0.0390625 C-15.08555003 -2.87909998 -6.30344983 -0.76488672 0 0 Z " fill="#EBC381" transform="translate(272.921875,384.9609375)"/>
<path d="M0 0 C28.38 0 56.76 0 86 0 C85 7 85 7 83 9 C80.6171875 9.4140625 80.6171875 9.4140625 77.875 9.625 C76.96492188 9.69976562 76.05484375 9.77453125 75.1171875 9.8515625 C74.06917969 9.92503906 74.06917969 9.92503906 73 10 C76.25530808 8.31573191 79.50470706 7.11213866 83 6 C83.33 4.35 83.66 2.7 84 1 C82.83774902 1.32524658 81.67549805 1.65049316 80.47802734 1.9855957 C73.5084156 3.52400525 66.44767259 3.26782552 59.3515625 3.23046875 C57.84703613 3.22927446 56.342509 3.22882431 54.83798218 3.2290802 C51.70297501 3.22752479 48.56808356 3.21930349 45.43310547 3.20581055 C41.41483302 3.18873371 37.39668623 3.18499926 33.37838173 3.18575573 C30.27976279 3.18548407 27.18117131 3.18000502 24.08256149 3.17275429 C22.60018496 3.16957456 21.11780533 3.16760184 19.63542557 3.16686058 C17.57020992 3.16469461 15.50512828 3.15594744 13.43994141 3.14526367 C12.26573639 3.14145187 11.09153137 3.13764008 9.88174438 3.13371277 C7 3 7 3 4 2 C4.33 3.65 4.66 5.3 5 7 C6.32 7 7.64 7 9 7 C9 7.66 9 8.32 9 9 C11.97 9.33 14.94 9.66 18 10 C18 10.33 18 10.66 18 11 C6.21080173 11.77674073 6.21080173 11.77674073 1.6875 8.875 C0 6 0 6 0 0 Z " fill="#E8BC68" transform="translate(263,408)"/>
<path d="M0 0 C0.66 0 1.32 0 2 0 C2 0.99 2 1.98 2 3 C-4.17155881 7.71942732 -11.48504842 7.14945635 -18.88671875 7.1328125 C-19.82554398 7.13376923 -20.7643692 7.13472595 -21.73164368 7.13571167 C-23.70757108 7.13638981 -25.68350075 7.13456113 -27.65942383 7.13037109 C-30.68771328 7.12499962 -33.71585564 7.13033773 -36.74414062 7.13671875 C-38.66666699 7.13605826 -40.58919327 7.13477769 -42.51171875 7.1328125 C-43.41798508 7.13483673 -44.3242514 7.13686096 -45.25798035 7.13894653 C-46.09927994 7.13579437 -46.94057953 7.13264221 -47.80737305 7.12939453 C-48.54650436 7.12859894 -49.28563568 7.12780334 -50.04716492 7.12698364 C-52 7 -52 7 -55 6 C-55 5.34 -55 4.68 -55 4 C-50.21775004 3.22253525 -45.66673726 2.8909715 -40.82421875 2.9375 C-40.17298538 2.94128662 -39.52175201 2.94507324 -38.8507843 2.94897461 C-36.79628465 2.96106743 -34.74193403 2.97971406 -32.6875 3 C-29.96219797 3.02656671 -27.23713382 3.046476 -24.51171875 3.0625 C-22.70900513 3.07990234 -22.70900513 3.07990234 -20.86987305 3.09765625 C-18.05560061 3.20135734 -18.05560061 3.20135734 -16 2 C-12.77385576 1.73634236 -9.55452624 1.5556966 -6.32226562 1.39453125 C-2.86745986 1.49806566 -2.86745986 1.49806566 0 0 Z " fill="#F7B72E" transform="translate(344,410)"/>
<path d="M0 0 C0.495 1.485 0.495 1.485 1 3 C-8.75359123 7.00593925 -17.82559695 7.15841377 -28.28125 7.16796875 C-29.56696899 7.17129715 -30.85268799 7.17462555 -32.17736816 7.17805481 C-34.90064327 7.18402281 -37.6238868 7.18589772 -40.34716797 7.18530273 C-43.08714527 7.18522235 -45.82695225 7.19202457 -48.56689453 7.20581055 C-62.31146125 7.27384563 -76.00979316 7.21449448 -89.71875 6.11328125 C-90.70854858 6.03554977 -91.69834717 5.9578183 -92.71813965 5.87773132 C-96.98695165 5.48712185 -100.21379679 5.11922245 -104 3 C-103.21262451 3.07001221 -102.42524902 3.14002441 -101.61401367 3.2121582 C-87.96014799 4.24975291 -74.28741763 4.18743824 -60.6027832 4.18530273 C-57.75148151 4.18522161 -54.90034097 4.19215481 -52.04907227 4.20581055 C-31.83691005 4.3118947 -31.83691005 4.3118947 -11.66796875 3.11328125 C-10.38941765 2.99668404 -10.38941765 2.99668404 -9.08503723 2.87773132 C-5.36344299 2.47674664 -3.1642135 2.10947567 0 0 Z " fill="#EDD1A1" transform="translate(360,392)"/>
<path d="M0 0 C0.5805813 3.0101878 1.04348662 5.92875755 1 9 C-0.75 11.125 -0.75 11.125 -3 12 C-3.99 11.67 -4.98 11.34 -6 11 C-5.01 10.34 -4.02 9.68 -3 9 C-2.27034634 6.43717258 -2.27034634 6.43717258 -2 4 C-2.66 4 -3.32 4 -4 4 C-4.33 4.99 -4.66 5.98 -5 7 C-5.99 6.67 -6.98 6.34 -8 6 C-8 5.34 -8 4.68 -8 4 C-8.886875 4.309375 -9.77375 4.61875 -10.6875 4.9375 C-15.38517769 6.3044472 -20.14870439 6.4738972 -25.01171875 6.75390625 C-27.84809806 6.89994799 -27.84809806 6.89994799 -29.92889404 7.50828552 C-32.07488821 8.01777969 -33.92371693 8.12049457 -36.12597656 8.11352539 C-36.92650452 8.11344986 -37.72703247 8.11337433 -38.55181885 8.11329651 C-39.83327789 8.10555458 -39.83327789 8.10555458 -41.140625 8.09765625 C-42.02280701 8.0962413 -42.90498901 8.09482635 -43.81390381 8.09336853 C-46.62597065 8.08778001 -49.4379573 8.07522961 -52.25 8.0625 C-54.15885302 8.05748352 -56.06770728 8.05292087 -57.9765625 8.04882812 C-62.65107247 8.03781434 -67.32552265 8.02055758 -72 8 C-72 7.67 -72 7.34 -72 7 C-70.93676514 6.97494385 -69.87353027 6.9498877 -68.77807617 6.92407227 C-64.78400284 6.82896917 -60.79006247 6.72901201 -56.79614258 6.62768555 C-55.07677347 6.58472143 -53.35737215 6.54302463 -51.63793945 6.50268555 C-42.39304032 6.28493712 -33.196322 6.05667594 -24 5 C-24 4.34 -24 3.68 -24 3 C-15.8390222 0.56907044 -8.50922528 -0.40735653 0 0 Z " fill="#F4B33E" transform="translate(360,383)"/>
<path d="M0 0 C18.81 0.495 18.81 0.495 38 1 C38 1.99 38 2.98 38 4 C30.89517528 6.18744603 24.15308697 6.36673763 16.75 6.375 C14.99429687 6.41173828 14.99429687 6.41173828 13.203125 6.44921875 C12.0790625 6.45308594 10.955 6.45695312 9.796875 6.4609375 C8.27078613 6.47326416 8.27078613 6.47326416 6.71386719 6.48583984 C3.30298298 5.87521916 2.106673 4.69646606 0 2 C0 1.34 0 0.68 0 0 Z " fill="#F6B238" transform="translate(286,430)"/>
<path d="M0 0 C7.92 0.33 15.84 0.66 24 1 C24 1.66 24 2.32 24 3 C25.09538086 2.96970703 26.19076172 2.93941406 27.31933594 2.90820312 C49.21780239 2.30892048 71.09168799 1.81889352 93 2 C93 2.33 93 2.66 93 3 C83.74960326 3.84621751 74.57954271 4.15991163 65.29296875 4.16796875 C63.91498279 4.17119655 62.53699715 4.17456164 61.15901184 4.17805481 C58.29081429 4.18398898 55.4226466 4.18590061 52.55444336 4.18530273 C49.64845559 4.18522146 46.74262542 4.19217446 43.83666992 4.20581055 C12.91116128 4.34905676 12.91116128 4.34905676 0 2 C0 1.34 0 0.68 0 0 Z " fill="#EEB64A" transform="translate(256,393)"/>
<path d="M0 0 C0.495 1.485 0.495 1.485 1 3 C-0.28197266 3.19916016 -0.28197266 3.19916016 -1.58984375 3.40234375 C-2.69457031 3.57894531 -3.79929687 3.75554687 -4.9375 3.9375 C-6.03964844 4.11152344 -7.14179688 4.28554688 -8.27734375 4.46484375 C-10.90426929 4.71845136 -10.90426929 4.71845136 -12 6 C-13.65738443 6.09346915 -15.31874644 6.11744977 -16.97875977 6.11352539 C-18.03978409 6.11344986 -19.10080841 6.11337433 -20.19398499 6.11329651 C-21.92520851 6.10555458 -21.92520851 6.10555458 -23.69140625 6.09765625 C-24.86638168 6.0962413 -26.04135712 6.09482635 -27.25193787 6.09336853 C-31.02215064 6.08774992 -34.79230504 6.07519426 -38.5625 6.0625 C-41.11132727 6.0574874 -43.66015547 6.05292408 -46.20898438 6.04882812 C-52.47267633 6.03777444 -58.73633399 6.02101821 -65 6 C-65 5.34 -65 4.68 -65 4 C-64.37518738 3.99191315 -63.75037476 3.98382629 -63.10662842 3.97549438 C-56.55168711 3.88884784 -49.99702756 3.78932477 -43.44238281 3.68261719 C-41.00232712 3.64454174 -38.56221939 3.60965317 -36.12207031 3.578125 C-32.59681709 3.53200558 -29.07191562 3.47409202 -25.546875 3.4140625 C-24.4713739 3.40251129 -23.3958728 3.39096008 -22.28778076 3.37905884 C-10.41243782 3.77566361 -10.41243782 3.77566361 0 0 Z " fill="#F8E4C4" transform="translate(347,415)"/>
<path d="M0 0 C14.40323659 -0.07658467 28.78856972 0.16216194 43.1875 0.5 C45.31705285 0.5483731 47.44661013 0.59655124 49.57617188 0.64453125 C54.71750164 0.7607824 59.85876485 0.87963985 65 1 C65 1.33 65 1.66 65 2 C58.5811449 2.0256589 52.16230334 2.0429944 45.7434082 2.05493164 C43.56631984 2.05991574 41.38923475 2.06670544 39.2121582 2.07543945 C27.09739302 2.12277363 15.07403304 2.07949474 3 1 C3.33 2.98 3.66 4.96 4 7 C8.62 7.99 13.24 8.98 18 10 C18 10.33 18 10.66 18 11 C6.21080173 11.77674073 6.21080173 11.77674073 1.6875 8.875 C-0.25342417 5.5682403 -0.14048117 3.75657063 0 0 Z " fill="#EAD1A5" transform="translate(263,408)"/>
<path d="M0 0 C0 0.33 0 0.66 0 1 C-0.56589844 1.13277344 -1.13179688 1.26554687 -1.71484375 1.40234375 C-2.81505859 1.66724609 -2.81505859 1.66724609 -3.9375 1.9375 C-5.03384766 2.19853516 -5.03384766 2.19853516 -6.15234375 2.46484375 C-7.99969898 2.83887569 -7.99969898 2.83887569 -9 4 C-11.65404403 4.26121211 -14.27510065 4.43683951 -16.9375 4.5625 C-18.25439819 4.6251001 -18.25439819 4.6251001 -19.59790039 4.68896484 C-30.37327243 5.11924211 -41.15514397 5.1111098 -51.9375 5.125 C-52.87931122 5.1275882 -53.82112244 5.13017639 -54.79147339 5.13284302 C-57.51596803 5.13873564 -60.240348 5.13709481 -62.96484375 5.1328125 C-64.19666382 5.13578087 -64.19666382 5.13578087 -65.45336914 5.1388092 C-69.7475663 5.12155613 -73.77057652 4.85394074 -78 4 C-78 3.67 -78 3.34 -78 3 C-76.10447388 3.01571045 -76.10447388 3.01571045 -74.1706543 3.03173828 C-69.38634181 3.06852281 -64.6020412 3.09110823 -59.81762695 3.10986328 C-57.76487105 3.11979003 -55.71212877 3.13333583 -53.65942383 3.15087891 C-38.99823388 3.27284623 -24.72548839 2.59362772 -10.2175293 0.43798828 C-6.77673999 -0.03039141 -3.46823603 -0.07078033 0 0 Z " fill="#E8B867" transform="translate(350,363)"/>
<path d="M0 0 C1.875 2.6875 1.875 2.6875 1.875 5.6875 C-7.71508361 8.88419454 -18.89170462 7.81371805 -28.875 7.75 C-30.26562337 7.74496857 -31.65624852 7.7404086 -33.046875 7.73632812 C-36.40629705 7.72466347 -39.76562419 7.70829614 -43.125 7.6875 C-43.125 7.3575 -43.125 7.0275 -43.125 6.6875 C-23.325 5.6975 -23.325 5.6975 -3.125 4.6875 C-3.125 3.3675 -3.125 2.0475 -3.125 0.6875 C-6.31324568 -0.90662284 -9.75396662 -0.41424735 -13.25 -0.375 C-14.38115234 -0.36823242 -14.38115234 -0.36823242 -15.53515625 -0.36132812 C-17.39847127 -0.34953499 -19.26174555 -0.33159942 -21.125 -0.3125 C-21.125 -0.6425 -21.125 -0.9725 -21.125 -1.3125 C-5.0015638 -3.70115721 -5.0015638 -3.70115721 0 0 Z " fill="#E7BD70" transform="translate(341.125,347.3125)"/>
<path d="M0 0 C-0.33 0.99 -0.66 1.98 -1 3 C-5.94660848 5.3223514 -10.71688699 5.30262293 -16.0625 5.25 C-16.85205078 5.25773437 -17.64160156 5.26546875 -18.45507812 5.2734375 C-22.75209837 5.25903006 -26.08414878 4.98550203 -30 3 C-30 2.67 -30 2.34 -30 2 C-29.32420898 1.97494385 -28.64841797 1.9498877 -27.95214844 1.92407227 C-24.8845832 1.80789258 -21.81730842 1.68526563 -18.75 1.5625 C-17.68652344 1.52318359 -16.62304688 1.48386719 -15.52734375 1.44335938 C-13.99013672 1.38051758 -13.99013672 1.38051758 -12.421875 1.31640625 C-11.00793457 1.26141968 -11.00793457 1.26141968 -9.56542969 1.20532227 C-6.25672661 0.94051266 -3.33202489 0 0 0 Z " fill="#EBC179" transform="translate(323,434)"/>
<path d="M0 0 C3.62519589 -0.05375085 7.2496019 -0.09355293 10.875 -0.125 C11.90753906 -0.14175781 12.94007813 -0.15851563 14.00390625 -0.17578125 C14.99003906 -0.18222656 15.97617187 -0.18867188 16.9921875 -0.1953125 C18.35899658 -0.21102295 18.35899658 -0.21102295 19.75341797 -0.22705078 C22 0 22 0 24 2 C24.125 5.125 24.125 5.125 24 8 C21 4.25 21 4.25 21 2 C14.73 2 8.46 2 2 2 C2 4.97 2 7.94 2 11 C7.61 11.33 13.22 11.66 19 12 C14.75197923 14.12401038 11.83238937 14.2376107 7.25 14.125 C6.55261719 14.11597656 5.85523438 14.10695313 5.13671875 14.09765625 C3.42433042 14.07419888 1.71211996 14.03833104 0 14 C0 9.38 0 4.76 0 0 Z " fill="#EBECED" transform="translate(405,392)"/>
<path d="M0 0 C0.66 0.66 1.32 1.32 2 2 C-1.3 2 -4.6 2 -8 2 C-8.33 3.65 -8.66 5.3 -9 7 C1.99225502 8.29690981 12.94722405 9.38052288 24 10 C24 10.33 24 10.66 24 11 C-4.7894523 11.34047972 -4.7894523 11.34047972 -12 8 C-11.65447612 5.44312331 -11.24912987 3.42498625 -9.9375 1.1875 C-6.67077511 -0.81468623 -3.77716356 -0.29977489 0 0 Z " fill="#E9B95B" transform="translate(270,364)"/>
<path d="M0 0 C0 1.65 0 3.3 0 5 C-1.32 5 -2.64 5 -4 5 C-3.01 4.67 -2.02 4.34 -1 4 C-1 3.01 -1 2.02 -1 1 C-1.99 1.66 -2.98 2.32 -4 3 C-6.44877625 3.24050903 -6.44877625 3.24050903 -9.3894043 3.22705078 C-10.49031906 3.22689972 -11.59123383 3.22674866 -12.72550964 3.22659302 C-14.50687065 3.21110916 -14.50687065 3.21110916 -16.32421875 3.1953125 C-17.54075638 3.1924826 -18.75729401 3.18965271 -20.01069641 3.18673706 C-23.90306358 3.17552603 -27.79520216 3.15041948 -31.6875 3.125 C-34.32356439 3.11497141 -36.95963238 3.10584535 -39.59570312 3.09765625 C-46.06388032 3.07558366 -52.53192383 3.04209688 -59 3 C-59 2.67 -59 2.34 -59 2 C-58.38247864 1.98969254 -57.76495728 1.97938507 -57.12872314 1.96876526 C-50.70484982 1.86063254 -44.28111484 1.74603989 -37.85742188 1.62768555 C-35.45966485 1.58435845 -33.0618774 1.54268178 -30.6640625 1.50268555 C-27.21865674 1.44492937 -23.77340375 1.38124994 -20.328125 1.31640625 C-18.71855927 1.29133751 -18.71855927 1.29133751 -17.07647705 1.26576233 C-16.07574158 1.24581711 -15.0750061 1.22587189 -14.04394531 1.20532227 C-13.16458313 1.18977798 -12.28522095 1.1742337 -11.37921143 1.15821838 C-7.45365391 0.89716745 -3.9966841 -0.111019 0 0 Z " fill="#F4B447" transform="translate(347,409)"/>
<path d="M0 0 C1.29111191 0.0001133 1.29111191 0.0001133 2.60830688 0.00022888 C3.53855682 0.00539017 4.46880676 0.01055145 5.42724609 0.01586914 C6.37884613 0.01728409 7.33044617 0.01869904 8.31088257 0.02015686 C11.35751456 0.02576527 14.40407372 0.0383192 17.45068359 0.05102539 C19.51318253 0.05603931 21.57568262 0.0606024 23.63818359 0.06469727 C28.70071176 0.07573744 33.76318532 0.09300772 38.82568359 0.11352539 C38.82568359 0.44352539 38.82568359 0.77352539 38.82568359 1.11352539 C24.96568359 1.11352539 11.10568359 1.11352539 -3.17431641 1.11352539 C-3.17431641 1.77352539 -3.17431641 2.43352539 -3.17431641 3.11352539 C1.77568359 3.44352539 6.72568359 3.77352539 11.82568359 4.11352539 C11.82568359 4.44352539 11.82568359 4.77352539 11.82568359 5.11352539 C9.20061558 5.14043383 6.57582186 5.16031944 3.95068359 5.17602539 C3.20431641 5.1844043 2.45794922 5.1927832 1.68896484 5.20141602 C-3.94775391 5.22680664 -3.94775391 5.22680664 -6.17431641 4.11352539 C-6.17431641 3.12352539 -6.17431641 2.13352539 -6.17431641 1.11352539 C-3.86611133 -0.04057715 -2.56647364 -0.00750431 0 0 Z " fill="#F1B548" transform="translate(281.17431640625,347.886474609375)"/>
<path d="M0 0 C2.06298828 -0.34057617 2.06298828 -0.34057617 4.5703125 -0.29296875 C5.46621094 -0.28330078 6.36210938 -0.27363281 7.28515625 -0.26367188 C8.69087891 -0.2259668 8.69087891 -0.2259668 10.125 -0.1875 C11.06988281 -0.17396484 12.01476562 -0.16042969 12.98828125 -0.14648438 C15.32608779 -0.11106306 17.66276237 -0.06167271 20 0 C20 0.33 20 0.66 20 1 C13.73 1 7.46 1 1 1 C1.33 3.97 1.66 6.94 2 10 C14.87 10.495 14.87 10.495 28 11 C28 11.33 28 11.66 28 12 C23.56396533 12.28335021 19.1266445 12.52096978 14.6875 12.75 C12.79354492 12.87181641 12.79354492 12.87181641 10.86132812 12.99609375 C9.65283203 13.05410156 8.44433594 13.11210937 7.19921875 13.171875 C6.08377686 13.2347168 4.96833496 13.29755859 3.8190918 13.36230469 C1 13 1 13 -0.86791992 11.18066406 C-2.37687329 8.27404955 -2.34386874 6.23236615 -2 3 C-1.34 2.01 -0.68 1.02 0 0 Z " fill="#EEEFEF" transform="translate(628,393)"/>
<path d="M0 0 C-3.36335145 3.36335145 -11.57609897 3.13385509 -16.08251953 3.22705078 C-17.8493155 3.22674049 -19.61613561 3.2158271 -21.3828125 3.1953125 C-22.32309296 3.1924826 -23.26337341 3.18965271 -24.23214722 3.18673706 C-27.19656827 3.17565978 -30.16067231 3.15057951 -33.125 3.125 C-35.15103726 3.11495407 -37.17707932 3.10583106 -39.203125 3.09765625 C-44.13553635 3.07576144 -49.06771468 3.04131957 -54 3 C-54 2.67 -54 2.34 -54 2 C-41.13 2 -28.26 2 -15 2 C-15 1.34 -15 0.68 -15 0 C-13.06325815 -0.19517554 -11.12555991 -0.38087873 -9.1875 -0.5625 C-8.10855469 -0.66691406 -7.02960938 -0.77132813 -5.91796875 -0.87890625 C-3 -1 -3 -1 0 0 Z " fill="#FAF0DF" transform="translate(343,354)"/>
<path d="M0 0 C0.5805813 3.0101878 1.04348662 5.92875755 1 9 C-0.75 11.125 -0.75 11.125 -3 12 C-3.99 11.67 -4.98 11.34 -6 11 C-4.35 10.34 -2.7 9.68 -1 9 C-1 6.69 -1 4.38 -1 2 C-1.90621094 2.144375 -2.81242187 2.28875 -3.74609375 2.4375 C-10.58077705 3.47897555 -17.08795238 4.23834647 -24 4 C-24 3.67 -24 3.34 -24 3 C-15.8390222 0.56907044 -8.50922528 -0.40735653 0 0 Z " fill="#E6C07E" transform="translate(360,383)"/>
<path d="M0 0 C18.81 0.495 18.81 0.495 38 1 C37.67 1.99 37.34 2.98 37 4 C37 3.34 37 2.68 37 2 C21.16 2.495 21.16 2.495 5 3 C5.33 3.99 5.66 4.98 6 6 C4.125 5.8125 4.125 5.8125 2 5 C1.34 3.35 0.68 1.7 0 0 Z " fill="#EEB757" transform="translate(286,430)"/>
<path d="M0 0 C8.25 0 16.5 0 25 0 C24.67 0.66 24.34 1.32 24 2 C20.3754207 2.19632025 16.75032733 2.38055978 13.125 2.5625 C12.09246094 2.61857422 11.05992187 2.67464844 9.99609375 2.73242188 C8.51689453 2.80493164 8.51689453 2.80493164 7.0078125 2.87890625 C5.64100342 2.94960327 5.64100342 2.94960327 4.24658203 3.02172852 C2 3 2 3 0 2 C0 1.34 0 0.68 0 0 Z " fill="#F0F2F2" transform="translate(504,362)"/>
<path d="M0 0 C0.99 0 1.98 0 3 0 C3 6.93 3 13.86 3 21 C2.67 21 2.34 21 2 21 C2 19.35 2 17.7 2 16 C1.34 16 0.68 16 0 16 C0 10.72 0 5.44 0 0 Z " fill="#F1F3F3" transform="translate(562,392)"/>
<path d="M0 0 C2.16874252 0.50603992 3.99967627 0.99983813 6 2 C6 2.66 6 3.32 6 4 C-6.21 4 -18.42 4 -31 4 C-31 3.34 -31 2.68 -31 2 C-29.35 1.67 -27.7 1.34 -26 1 C-26 1.66 -26 2.32 -26 3 C-16.76 2.67 -7.52 2.34 2 2 C1.34 1.34 0.68 0.68 0 0 Z " fill="#EAB957" transform="translate(320,332)"/>
<path d="M0 0 C0.99 0.66 1.98 1.32 3 2 C3.3125 4.5 3.3125 4.5 3 7 C1 9 1 9 -1.6015625 9.1953125 C-2.59929687 9.17210937 -3.59703125 9.14890625 -4.625 9.125 C-6.12933594 9.09792969 -6.12933594 9.09792969 -7.6640625 9.0703125 C-8.43492187 9.04710937 -9.20578125 9.02390625 -10 9 C-10 8.34 -10 7.68 -10 7 C-6.78548731 5.39274365 -3.56387464 5.94251815 0 6 C0 4.02 0 2.04 0 0 Z " fill="#F1B54F" transform="translate(352,365)"/>
<path d="M0 0 C-0.33 1.32 -0.66 2.64 -1 4 C-1.495 3.01 -1.495 3.01 -2 2 C-14.21 2 -26.42 2 -39 2 C-39 1.67 -39 1.34 -39 1 C-34.2494584 0.85663347 -29.4988888 0.71424674 -24.74829102 0.57275391 C-23.13337416 0.52451844 -21.51846517 0.47601881 -19.90356445 0.42724609 C-17.5776571 0.35704624 -15.25172277 0.28780744 -12.92578125 0.21875 C-11.84892815 0.18593933 -11.84892815 0.18593933 -10.75032043 0.15246582 C-7.16551927 0.04697196 -3.5863847 -0.02445957 0 0 Z " fill="#F7E4CE" transform="translate(331,428)"/>
<path d="M0 0 C0.99 0 1.98 0 3 0 C3 0.99 3 1.98 3 3 C9.93 3.33 16.86 3.66 24 4 C24 4.33 24 4.66 24 5 C20.3958502 5.02900455 16.79173038 5.04680018 13.1875 5.0625 C11.65125977 5.07506836 11.65125977 5.07506836 10.08398438 5.08789062 C8.60961914 5.09272461 8.60961914 5.09272461 7.10546875 5.09765625 C6.19949951 5.10289307 5.29353027 5.10812988 4.36010742 5.11352539 C2 5 2 5 -1 4 C-0.67 2.68 -0.34 1.36 0 0 Z " fill="#EABD68" transform="translate(272,349)"/>
<path d="M0 0 C1.74965358 -0.05429959 3.49979787 -0.09292823 5.25 -0.125 C6.22453125 -0.14820313 7.1990625 -0.17140625 8.203125 -0.1953125 C11.0196498 0.00137219 12.60949036 0.55431084 15 2 C14 3 14 3 11.6015625 3.1328125 C10.61929687 3.13023437 9.63703125 3.12765625 8.625 3.125 C7.64789063 3.12757813 6.67078125 3.13015625 5.6640625 3.1328125 C3 3 3 3 0 2 C0 1.34 0 0.68 0 0 Z " fill="#F9B632" transform="translate(278,349)"/>
<path d="M0 0 C0.66 0.33 1.32 0.66 2 1 C1.34 2.32 0.68 3.64 0 5 C0.66 5.33 1.32 5.66 2 6 C1.625 7.9375 1.625 7.9375 1 10 C0.01 10.495 0.01 10.495 -1 11 C-2.50662097 7.98675805 -2.17770373 5.31713623 -2 2 C-1.34 1.34 -0.68 0.68 0 0 Z " fill="#F0F3F4" transform="translate(715,362)"/>
<path d="M0 0 C2.97 0.33 5.94 0.66 9 1 C7.02 1.99 7.02 1.99 5 3 C5.33 3.99 5.66 4.98 6 6 C4.125 5.8125 4.125 5.8125 2 5 C0.75 2.4375 0.75 2.4375 0 0 Z " fill="#E7B761" transform="translate(286,430)"/>
<path d="M0 0 C2.31 0 4.62 0 7 0 C6.67 1.32 6.34 2.64 6 4 C4.35 4.33 2.7 4.66 1 5 C1.33 3.68 1.66 2.36 2 1 C1.34 0.67 0.68 0.34 0 0 Z " fill="#E7C179" transform="translate(322,430)"/>
<path d="M0 0 C3.3 0 6.6 0 10 0 C10 0.33 10 0.66 10 1 C7.69 1.33 5.38 1.66 3 2 C2.67 3.65 2.34 5.3 2 7 C1.34 7 0.68 7 0 7 C0 4.69 0 2.38 0 0 Z " fill="#EBB747" transform="translate(254,386)"/>
<path d="M0 0 C1.4606285 2.64738916 2 3.89448334 2 7 C-0.31 7.33 -2.62 7.66 -5 8 C-4.0409375 7.13375 -4.0409375 7.13375 -3.0625 6.25 C-1.01776132 4.01937599 -0.41794801 2.92563609 0 0 Z " fill="#F1F1F2" transform="translate(425,376)"/>
<path d="M0 0 C0.99 0.66 1.98 1.32 3 2 C3.3125 4.5 3.3125 4.5 3 7 C2.34 7.66 1.68 8.32 1 9 C-1.125 8.625 -1.125 8.625 -3 8 C-1.68 7.67 -0.36 7.34 1 7 C0.67 4.69 0.34 2.38 0 0 Z " fill="#E9C58C" transform="translate(352,365)"/>
<path d="M0 0 C2.97 0 5.94 0 9 0 C9 0.33 9 0.66 9 1 C7.02 1 5.04 1 3 1 C3.66 2.32 4.32 3.64 5 5 C2.525 4.01 2.525 4.01 0 3 C0 2.01 0 1.02 0 0 Z " fill="#E7CCA8" transform="translate(283,429)"/>
<path d="M0 0 C5.28 0.33 10.56 0.66 16 1 C16 1.33 16 1.66 16 2 C8.08 2.495 8.08 2.495 0 3 C0 2.01 0 1.02 0 0 Z " fill="#F4F4F5" transform="translate(743,372)"/>
<path d="M0 0 C0 3.25811062 -0.5522078 5.10441559 -2 8 C-2.99 8.33 -3.98 8.66 -5 9 C-4.42647107 5.12867972 -2.51295648 2.91827204 0 0 Z " fill="#F2F3F5" transform="translate(671,366)"/>
<path d="M0 0 C3.875 0.875 3.875 0.875 5 2 C5.04080783 3.99958364 5.04254356 6.00045254 5 8 C2 4.25 2 4.25 2 2 C1.34 2 0.68 2 0 2 C0 1.34 0 0.68 0 0 Z " fill="#EEEFF1" transform="translate(424,392)"/>
<path d="M0 0 C-0.33 1.32 -0.66 2.64 -1 4 C-1.33 3.34 -1.66 2.68 -2 2 C-4.31 2 -6.62 2 -9 2 C-5.86501708 0.14223235 -3.62528568 -0.20140476 0 0 Z " fill="#EAD5B9" transform="translate(331,428)"/>
<path d="M0 0 C0.99 0 1.98 0 3 0 C3 0.99 3 1.98 3 3 C3.66 3.33 4.32 3.66 5 4 C3.02 4 1.04 4 -1 4 C-0.67 2.68 -0.34 1.36 0 0 Z " fill="#E2B360" transform="translate(272,349)"/>
</svg>
